<svg width="182" height="23" viewBox="0 0 182 23" fill="none" xmlns="http://www.w3.org/2000/svg">
<path d="M0.416 0.24H17.44V5.456H16.608L15.68 2.096C15.616 1.84 15.5413 1.65867 15.456 1.552C15.392 1.424 15.2533 1.34933 15.04 1.328C14.8267 1.28533 14.464 1.264 13.952 1.264H10.336V19.408C10.336 20.1547 10.368 20.592 10.432 20.72C10.496 20.848 10.6987 20.9333 11.04 20.976L12.8 21.168V22H5.088V21.168L6.848 20.976C7.18933 20.9333 7.392 20.848 7.456 20.72C7.52 20.592 7.552 20.1547 7.552 19.408V1.264H3.904C3.41333 1.264 3.05067 1.28533 2.816 1.328C2.60267 1.34933 2.45333 1.424 2.368 1.552C2.304 1.65867 2.24 1.84 2.176 2.096L1.248 5.456H0.416V0.24ZM32.4338 13.744V14.384C32.4338 16.7947 31.8258 18.7253 30.6098 20.176C29.4151 21.6053 27.7084 22.32 25.4898 22.32C23.2924 22.32 21.5858 21.6053 20.3698 20.176C19.1751 18.7253 18.5778 16.7947 18.5778 14.384V13.744C18.5778 11.3547 19.1751 9.44533 20.3698 8.016C21.5644 6.56533 23.2711 5.84 25.4898 5.84C27.7084 5.84 29.4151 6.56533 30.6098 8.016C31.8258 9.44533 32.4338 11.3547 32.4338 13.744ZM29.5538 13.104C29.5538 10.8853 29.2018 9.296 28.4978 8.336C27.8151 7.35467 26.8124 6.864 25.4898 6.864C24.1884 6.864 23.1858 7.35467 22.4818 8.336C21.7991 9.296 21.4578 10.8853 21.4578 13.104V15.024C21.4578 17.264 21.7991 18.8747 22.4818 19.856C23.1858 20.816 24.1884 21.296 25.4898 21.296C26.8124 21.296 27.8151 20.816 28.4978 19.856C29.2018 18.8747 29.5538 17.264 29.5538 15.024V13.104ZM53.0943 21.168V22H45.5423V21.168L47.3023 20.976C47.6436 20.9333 47.8463 20.848 47.9103 20.72C47.9743 20.592 48.0063 20.1547 48.0063 19.408V11.44C48.0063 9.86133 47.7609 8.752 47.2703 8.112C46.8009 7.45067 46.1076 7.12 45.1903 7.12C44.5289 7.12 43.7823 7.33333 42.9503 7.76C42.1396 8.18667 41.3609 9.008 40.6143 10.224V19.408C40.6143 20.1547 40.6463 20.592 40.7103 20.72C40.7743 20.848 40.9769 20.9333 41.3183 20.976L43.0783 21.168V22H35.5263V21.168L37.2863 20.976C37.6276 20.9333 37.8303 20.848 37.8943 20.72C37.9583 20.592 37.9903 20.1547 37.9903 19.408V8.752C37.9903 8.00533 37.9583 7.568 37.8943 7.44C37.8303 7.312 37.6276 7.22667 37.2863 7.184L35.5263 7.024V6.16H40.4543V8.752C41.2009 7.74933 42.0436 7.01333 42.9823 6.544C43.9423 6.07467 44.8916 5.84 45.8303 5.84C48.1343 5.84 49.6169 6.896 50.2783 9.008C51.0676 7.89867 51.9423 7.09867 52.9023 6.608C53.8836 6.096 54.8649 5.84 55.8463 5.84C57.3609 5.84 58.5343 6.33067 59.3663 7.312C60.2196 8.272 60.6463 9.63733 60.6463 11.408V19.408C60.6463 20.1547 60.6783 20.592 60.7423 20.72C60.8063 20.848 61.0089 20.9333 61.3503 20.976L63.1103 21.168V22H55.5583V21.168L57.3183 20.976C57.6596 20.9333 57.8623 20.848 57.9263 20.72C57.9903 20.592 58.0223 20.1547 58.0223 19.408V11.44C58.0223 9.86133 57.7769 8.752 57.2863 8.112C56.8169 7.45067 56.1236 7.12 55.2063 7.12C54.5449 7.12 53.7876 7.344 52.9343 7.792C52.1023 8.21867 51.3129 9.06133 50.5662 10.32C50.5876 10.4907 50.5983 10.672 50.5983 10.864C50.6196 11.0347 50.6303 11.216 50.6303 11.408V19.408C50.6303 20.1547 50.6623 20.592 50.7263 20.72C50.7903 20.848 50.9929 20.9333 51.3343 20.976L53.0943 21.168ZM82.5318 21.168V22H74.9798V21.168L76.7398 20.976C77.0811 20.9333 77.2838 20.848 77.3478 20.72C77.4118 20.592 77.4438 20.1547 77.4438 19.408V11.44C77.4438 9.86133 77.1984 8.752 76.7078 8.112C76.2384 7.45067 75.5451 7.12 74.6278 7.12C73.9664 7.12 73.2198 7.33333 72.3878 7.76C71.5771 8.18667 70.7984 9.008 70.0518 10.224V19.408C70.0518 20.1547 70.0838 20.592 70.1478 20.72C70.2118 20.848 70.4144 20.9333 70.7558 20.976L72.5158 21.168V22H64.9638V21.168L66.7238 20.976C67.0651 20.9333 67.2678 20.848 67.3318 20.72C67.3958 20.592 67.4278 20.1547 67.4278 19.408V8.752C67.4278 8.00533 67.3958 7.568 67.3318 7.44C67.2678 7.312 67.0651 7.22667 66.7238 7.184L64.9638 7.024V6.16H69.8918V8.752C70.6384 7.74933 71.4811 7.01333 72.4198 6.544C73.3798 6.07467 74.3291 5.84 75.2678 5.84C77.5718 5.84 79.0544 6.896 79.7158 9.008C80.5051 7.89867 81.3798 7.09867 82.3398 6.608C83.3211 6.096 84.3024 5.84 85.2838 5.84C86.7984 5.84 87.9718 6.33067 88.8038 7.312C89.6571 8.272 90.0838 9.63733 90.0838 11.408V19.408C90.0838 20.1547 90.1158 20.592 90.1798 20.72C90.2438 20.848 90.4464 20.9333 90.7878 20.976L92.5478 21.168V22H84.9958V21.168L86.7558 20.976C87.0971 20.9333 87.2998 20.848 87.3638 20.72C87.4278 20.592 87.4598 20.1547 87.4598 19.408V11.44C87.4598 9.86133 87.2144 8.752 86.7238 8.112C86.2544 7.45067 85.5611 7.12 84.6438 7.12C83.9824 7.12 83.2251 7.344 82.3718 7.792C81.5398 8.21867 80.7504 9.06133 80.0037 10.32C80.0251 10.4907 80.0358 10.672 80.0358 10.864C80.0571 11.0347 80.0678 11.216 80.0678 11.408V19.408C80.0678 20.1547 80.0998 20.592 80.1638 20.72C80.2278 20.848 80.4304 20.9333 80.7718 20.976L82.5318 21.168ZM109.121 13.744V14.384C109.121 16.7947 108.513 18.7253 107.297 20.176C106.103 21.6053 104.396 22.32 102.177 22.32C99.9799 22.32 98.2733 21.6053 97.0573 20.176C95.8626 18.7253 95.2653 16.7947 95.2653 14.384V13.744C95.2653 11.3547 95.8626 9.44533 97.0573 8.016C98.2519 6.56533 99.9586 5.84 102.177 5.84C104.396 5.84 106.103 6.56533 107.297 8.016C108.513 9.44533 109.121 11.3547 109.121 13.744ZM106.241 13.104C106.241 10.8853 105.889 9.296 105.185 8.336C104.503 7.35467 103.5 6.864 102.177 6.864C100.876 6.864 99.8733 7.35467 99.1693 8.336C98.4866 9.296 98.1453 10.8853 98.1453 13.104V15.024C98.1453 17.264 98.4866 18.8747 99.1693 19.856C99.8733 20.816 100.876 21.296 102.177 21.296C103.5 21.296 104.503 20.816 105.185 19.856C105.889 18.8747 106.241 17.264 106.241 15.024V13.104ZM112.214 7.024V6.16H117.142V8.72C117.888 7.71733 118.635 6.992 119.382 6.544C120.15 6.07467 120.928 5.84 121.718 5.84C122.4 5.84 123.04 6.04267 123.638 6.448C124.235 6.85333 124.736 7.504 125.142 8.4L123.062 9.648C122.742 8.88 122.379 8.34667 121.974 8.048C121.568 7.74933 121.12 7.6 120.63 7.6C120.096 7.6 119.563 7.77067 119.03 8.112C118.518 8.45333 117.942 9.09333 117.302 10.032V19.408C117.302 20.1547 117.334 20.6027 117.398 20.752C117.462 20.88 117.664 20.9547 118.006 20.976L120.406 21.168V22H112.214V21.168L113.974 20.976C114.315 20.9333 114.518 20.848 114.582 20.72C114.646 20.592 114.678 20.1547 114.678 19.408V8.752C114.678 8.00533 114.646 7.568 114.582 7.44C114.518 7.312 114.315 7.22667 113.974 7.184L112.214 7.024ZM126.276 7.024V6.16H131.204V8.72C131.951 7.71733 132.698 6.992 133.444 6.544C134.212 6.07467 134.991 5.84 135.78 5.84C136.463 5.84 137.103 6.04267 137.7 6.448C138.298 6.85333 138.799 7.504 139.204 8.4L137.124 9.648C136.804 8.88 136.442 8.34667 136.036 8.048C135.631 7.74933 135.183 7.6 134.692 7.6C134.159 7.6 133.626 7.77067 133.092 8.112C132.58 8.45333 132.004 9.09333 131.364 10.032V19.408C131.364 20.1547 131.396 20.6027 131.46 20.752C131.524 20.88 131.727 20.9547 132.068 20.976L134.468 21.168V22H126.276V21.168L128.036 20.976C128.378 20.9333 128.58 20.848 128.644 20.72C128.708 20.592 128.74 20.1547 128.74 19.408V8.752C128.74 8.00533 128.708 7.568 128.644 7.44C128.58 7.312 128.378 7.22667 128.036 7.184L126.276 7.024ZM154.871 13.744V14.384C154.871 16.7947 154.263 18.7253 153.047 20.176C151.853 21.6053 150.146 22.32 147.927 22.32C145.73 22.32 144.023 21.6053 142.807 20.176C141.613 18.7253 141.015 16.7947 141.015 14.384V13.744C141.015 11.3547 141.613 9.44533 142.807 8.016C144.002 6.56533 145.709 5.84 147.927 5.84C150.146 5.84 151.853 6.56533 153.047 8.016C154.263 9.44533 154.871 11.3547 154.871 13.744ZM151.991 13.104C151.991 10.8853 151.639 9.296 150.935 8.336C150.253 7.35467 149.25 6.864 147.927 6.864C146.626 6.864 145.623 7.35467 144.919 8.336C144.237 9.296 143.895 10.8853 143.895 13.104V15.024C143.895 17.264 144.237 18.8747 144.919 19.856C145.623 20.816 146.626 21.296 147.927 21.296C149.25 21.296 150.253 20.816 150.935 19.856C151.639 18.8747 151.991 17.264 151.991 15.024V13.104ZM178.614 8.56L175.03 22H172.95L168.758 8.784L164.566 22H162.582L159.03 8.56C158.88 7.94133 158.752 7.568 158.646 7.44C158.56 7.312 158.347 7.22667 158.006 7.184L156.373 7.024V6.16H163.638V7.024L161.974 7.184C161.632 7.22667 161.44 7.312 161.398 7.44C161.376 7.568 161.451 7.94133 161.622 8.56L164.374 19.12L168.438 6.16H170.518L174.646 19.312L177.43 8.56C177.6 7.94133 177.664 7.568 177.622 7.44C177.6 7.312 177.419 7.22667 177.078 7.184L175.414 7.024V6.16H181.27V7.024L179.638 7.184C179.318 7.22667 179.104 7.312 178.998 7.44C178.912 7.568 178.784 7.94133 178.614 8.56Z" fill="black"/>
</svg>
