<svg width="30" height="18" viewBox="0 0 30 18" fill="none" xmlns="http://www.w3.org/2000/svg">
<path d="M5.512 17.376V18H0.952V17.376L2.248 17.232C2.424 17.216 2.552 17.192 2.632 17.16C2.712 17.112 2.784 17.016 2.848 16.872C2.928 16.712 3.024 16.44 3.136 16.056L7.768 1.68H9.28L13.96 16.056C14.072 16.44 14.16 16.712 14.224 16.872C14.304 17.016 14.384 17.112 14.464 17.16C14.544 17.192 14.664 17.216 14.824 17.232L16.144 17.376V18H10.312V17.376L11.632 17.232C11.888 17.2 12.024 17.136 12.04 17.04C12.072 16.928 12 16.6 11.824 16.056L10.84 12.984H4.984L4 16.056C3.824 16.6 3.744 16.928 3.76 17.04C3.792 17.136 3.936 17.2 4.192 17.232L5.512 17.376ZM5.224 12.216H10.6L7.912 3.864L5.224 12.216ZM16.7423 0.887999V0.24H20.5583V16.056C20.5583 16.616 20.5823 16.944 20.6303 17.04C20.6783 17.136 20.8303 17.2 21.0863 17.232L22.4063 17.376V18H16.7423V17.376L18.0623 17.232C18.3183 17.2 18.4703 17.136 18.5183 17.04C18.5663 16.944 18.5903 16.616 18.5903 16.056V2.184C18.5903 1.624 18.5663 1.296 18.5183 1.2C18.4703 1.104 18.3183 1.04 18.0623 1.008L16.7423 0.887999ZM23.7736 0.887999V0.24H27.5896V16.056C27.5896 16.616 27.6136 16.944 27.6616 17.04C27.7096 17.136 27.8616 17.2 28.1176 17.232L29.4376 17.376V18H23.7736V17.376L25.0936 17.232C25.3496 17.2 25.5016 17.136 25.5496 17.04C25.5976 16.944 25.6216 16.616 25.6216 16.056V2.184C25.6216 1.624 25.5976 1.296 25.5496 1.2C25.5016 1.104 25.3496 1.04 25.0936 1.008L23.7736 0.887999Z" fill="black"/>
</svg>
