<svg width="77" height="48" viewBox="0 0 77 48" fill="none" xmlns="http://www.w3.org/2000/svg">
<path d="M13.032 46.336V48H0.872V46.336L4.328 45.952C4.79733 45.9093 5.13867 45.8453 5.352 45.76C5.56533 45.632 5.75733 45.376 5.928 44.992C6.14133 44.5653 6.39733 43.84 6.696 42.816L19.048 4.48H23.08L35.56 42.816C35.8587 43.84 36.0933 44.5653 36.264 44.992C36.4773 45.376 36.6907 45.632 36.904 45.76C37.1173 45.8453 37.4373 45.9093 37.864 45.952L41.384 46.336V48H25.832V46.336L29.352 45.952C30.0347 45.8667 30.3973 45.696 30.44 45.44C30.5253 45.1413 30.3333 44.2667 29.864 42.816L27.24 34.624H11.624L9 42.816C8.53067 44.2667 8.31733 45.1413 8.36 45.44C8.44533 45.696 8.82933 45.8667 9.512 45.952L13.032 46.336ZM12.264 32.576H26.6L19.432 10.304L12.264 32.576ZM42.9795 2.368V0.639999H53.1555V42.816C53.1555 44.3093 53.2195 45.184 53.3475 45.44C53.4755 45.696 53.8808 45.8667 54.5635 45.952L58.0835 46.336V48H42.9795V46.336L46.4995 45.952C47.1822 45.8667 47.5875 45.696 47.7155 45.44C47.8435 45.184 47.9075 44.3093 47.9075 42.816V5.824C47.9075 4.33067 47.8435 3.456 47.7155 3.2C47.5875 2.944 47.1822 2.77333 46.4995 2.688L42.9795 2.368ZM61.7295 2.368V0.639999H71.9055V42.816C71.9055 44.3093 71.9695 45.184 72.0975 45.44C72.2255 45.696 72.6308 45.8667 73.3135 45.952L76.8335 46.336V48H61.7295V46.336L65.2495 45.952C65.9322 45.8667 66.3375 45.696 66.4655 45.44C66.5935 45.184 66.6575 44.3093 66.6575 42.816V5.824C66.6575 4.33067 66.5935 3.456 66.4655 3.2C66.3375 2.944 65.9322 2.77333 65.2495 2.688L61.7295 2.368Z" fill="black"/>
</svg>
