<svg width="282" height="47" viewBox="0 0 282 47" fill="none" xmlns="http://www.w3.org/2000/svg">
<path d="M0.832 2.48H34.88V12.912H33.216L31.36 6.192C31.232 5.68 31.0827 5.31733 30.912 5.104C30.784 4.848 30.5067 4.69866 30.08 4.656C29.6533 4.57067 28.928 4.528 27.904 4.528H20.672V40.816C20.672 42.3093 20.736 43.184 20.864 43.44C20.992 43.696 21.3973 43.8667 22.08 43.952L25.6 44.336V46H10.176V44.336L13.696 43.952C14.3787 43.8667 14.784 43.696 14.912 43.44C15.04 43.184 15.104 42.3093 15.104 40.816V4.528H7.808C6.82667 4.528 6.10133 4.57067 5.632 4.656C5.20533 4.69866 4.90667 4.848 4.736 5.104C4.608 5.31733 4.48 5.68 4.352 6.192L2.496 12.912H0.832V2.48ZM64.8675 29.488V30.768C64.8675 35.5893 63.6515 39.4507 61.2195 42.352C58.8302 45.2107 55.4168 46.64 50.9795 46.64C46.5848 46.64 43.1715 45.2107 40.7395 42.352C38.3502 39.4507 37.1555 35.5893 37.1555 30.768V29.488C37.1555 24.7093 38.3502 20.8907 40.7395 18.032C43.1288 15.1307 46.5422 13.68 50.9795 13.68C55.4168 13.68 58.8302 15.1307 61.2195 18.032C63.6515 20.8907 64.8675 24.7093 64.8675 29.488ZM59.1075 28.208C59.1075 23.7707 58.4035 20.592 56.9955 18.672C55.6302 16.7093 53.6248 15.728 50.9795 15.728C48.3768 15.728 46.3715 16.7093 44.9635 18.672C43.5982 20.592 42.9155 23.7707 42.9155 28.208V32.048C42.9155 36.528 43.5982 39.7493 44.9635 41.712C46.3715 43.632 48.3768 44.592 50.9795 44.592C53.6248 44.592 55.6302 43.632 56.9955 41.712C58.4035 39.7493 59.1075 36.528 59.1075 32.048V28.208ZM86.3845 4.208V2.48H104.561C109.766 2.48 113.755 4.16533 116.529 7.536C119.302 10.9067 120.689 15.664 120.689 21.808V26.608C120.689 32.7947 119.302 37.5733 116.529 40.944C113.755 44.3147 109.766 46 104.561 46H86.3845V44.336L89.9045 43.952C90.5872 43.8667 90.9925 43.696 91.1205 43.44C91.2485 43.184 91.3125 42.3093 91.3125 40.816V7.664C91.3125 6.17067 91.2485 5.296 91.1205 5.04C90.9925 4.784 90.5872 4.61333 89.9045 4.528L86.3845 4.208ZM104.433 4.528H96.8805V43.952H104.433C106.737 43.952 108.635 43.5253 110.129 42.672C111.622 41.8187 112.731 40.368 113.457 38.32C114.225 36.2293 114.609 33.392 114.609 29.808V18.608C114.609 15.0667 114.225 12.272 113.457 10.224C112.731 8.176 111.622 6.72533 110.129 5.872C108.635 4.976 106.737 4.528 104.433 4.528ZM157.118 29.488V30.768C157.118 35.5893 155.902 39.4507 153.47 42.352C151.08 45.2107 147.667 46.64 143.23 46.64C138.835 46.64 135.422 45.2107 132.99 42.352C130.6 39.4507 129.406 35.5893 129.406 30.768V29.488C129.406 24.7093 130.6 20.8907 132.99 18.032C135.379 15.1307 138.792 13.68 143.23 13.68C147.667 13.68 151.08 15.1307 153.47 18.032C155.902 20.8907 157.118 24.7093 157.118 29.488ZM151.358 28.208C151.358 23.7707 150.654 20.592 149.246 18.672C147.88 16.7093 145.875 15.728 143.23 15.728C140.627 15.728 138.622 16.7093 137.214 18.672C135.848 20.592 135.166 23.7707 135.166 28.208V32.048C135.166 36.528 135.848 39.7493 137.214 41.712C138.622 43.632 140.627 44.592 143.23 44.592C145.875 44.592 147.88 43.632 149.246 41.712C150.654 39.7493 151.358 36.528 151.358 32.048V28.208ZM206.027 35.44H207.755V46H178.635V44.336L182.155 43.952C182.837 43.8667 183.243 43.696 183.371 43.44C183.499 43.184 183.562 42.3093 183.562 40.816V7.664C183.562 6.17067 183.499 5.296 183.371 5.04C183.243 4.784 182.837 4.61333 182.155 4.528L178.635 4.208V2.48H194.059V4.208L190.539 4.528C189.856 4.61333 189.451 4.784 189.323 5.04C189.195 5.296 189.131 6.17067 189.131 7.664V43.952H200.715C201.739 43.952 202.464 43.9307 202.891 43.888C203.317 43.8027 203.595 43.6533 203.723 43.44C203.893 43.184 204.043 42.8 204.171 42.288L206.027 35.44ZM218.228 7.152C217.204 7.152 216.351 6.832 215.668 6.192C215.028 5.50933 214.708 4.63467 214.708 3.568C214.708 2.544 215.028 1.712 215.668 1.072C216.351 0.431999 217.204 0.112 218.228 0.112C219.252 0.112 220.084 0.431999 220.724 1.072C221.407 1.712 221.748 2.544 221.748 3.568C221.748 4.63467 221.407 5.50933 220.724 6.192C220.084 6.832 219.252 7.152 218.228 7.152ZM210.74 16.048V14.32H220.916V40.816C220.916 42.3093 220.98 43.184 221.108 43.44C221.236 43.696 221.641 43.8667 222.324 43.952L225.844 44.336V46H210.74V44.336L214.26 43.952C214.943 43.8667 215.348 43.696 215.476 43.44C215.604 43.184 215.668 42.3093 215.668 40.816V19.504C215.668 18.0107 215.604 17.136 215.476 16.88C215.348 16.624 214.943 16.4533 214.26 16.368L210.74 16.048ZM243.369 33.072L239.465 32.112C234.132 30.7467 231.465 27.6747 231.465 22.896C231.465 21.3173 231.828 19.824 232.553 18.416C233.278 17.008 234.43 15.8773 236.009 15.024C237.63 14.128 239.7 13.68 242.217 13.68C245.033 13.68 247.294 14.1493 249.001 15.088C250.708 16.0267 251.902 17.2427 252.585 18.736C253.268 20.2293 253.481 21.8507 253.225 23.6L248.233 24.496C248.745 21.7227 248.446 19.568 247.337 18.032C246.27 16.496 244.5 15.728 242.025 15.728C240.105 15.728 238.569 16.2187 237.417 17.2C236.265 18.1387 235.689 19.5253 235.689 21.36C235.689 22.7253 236.116 23.9413 236.969 25.008C237.822 26.032 239.252 26.8 241.257 27.312L245.289 28.272C248.105 28.9547 250.281 30.0427 251.817 31.536C253.396 33.0293 254.185 34.992 254.185 37.424C254.185 40.1547 253.182 42.3733 251.177 44.08C249.214 45.7867 246.398 46.64 242.729 46.64C240.98 46.64 239.273 46.384 237.609 45.872C235.988 45.3173 234.558 44.464 233.321 43.312C232.126 42.1173 231.252 40.5813 230.697 38.704L234.281 37.424C234.75 40.112 235.774 41.9893 237.353 43.056C238.932 44.1227 240.745 44.656 242.793 44.656C243.988 44.656 245.118 44.464 246.185 44.08C247.294 43.696 248.19 43.0987 248.873 42.288C249.556 41.4347 249.897 40.3467 249.897 39.024C249.897 37.6587 249.428 36.4853 248.489 35.504C247.55 34.5227 245.844 33.712 243.369 33.072ZM281.298 39.472C280.658 41.9467 279.655 43.76 278.29 44.912C276.924 46.064 275.175 46.64 273.042 46.64C270.994 46.64 269.33 46.192 268.05 45.296C266.77 44.3573 265.831 43.1413 265.234 41.648C264.636 40.1547 264.338 38.5973 264.338 36.976V19.504C264.338 18.0107 264.274 17.136 264.146 16.88C264.06 16.624 263.655 16.4533 262.93 16.368L259.41 16.048V14.32H264.338V5.936L269.586 4.848V14.32H280.018V16.368H269.586V37.488C269.586 40.176 269.948 42.032 270.674 43.056C271.442 44.08 272.444 44.592 273.682 44.592C274.919 44.592 275.858 44.1227 276.498 43.184C277.18 42.2453 277.671 40.7093 277.97 38.576L281.298 39.472Z" fill="black"/>
</svg>
