<svg width="173" height="63" viewBox="0 0 173 63" fill="none" xmlns="http://www.w3.org/2000/svg">
<path d="M0.832 4.48H34.88V14.912H33.216L31.36 8.192C31.232 7.68 31.0827 7.31733 30.912 7.104C30.784 6.848 30.5067 6.69866 30.08 6.656C29.6533 6.57067 28.928 6.528 27.904 6.528H20.672V42.816C20.672 44.3093 20.736 45.184 20.864 45.44C20.992 45.696 21.3973 45.8667 22.08 45.952L25.6 46.336V48H10.176V46.336L13.696 45.952C14.3787 45.8667 14.784 45.696 14.912 45.44C15.04 45.184 15.104 44.3093 15.104 42.816V6.528H7.808C6.82667 6.528 6.10133 6.57067 5.632 6.656C5.20533 6.69866 4.90667 6.848 4.736 7.104C4.608 7.31733 4.48 7.68 4.352 8.192L2.496 14.912H0.832V4.48ZM64.8675 31.488V32.768C64.8675 37.5893 63.6515 41.4507 61.2195 44.352C58.8302 47.2107 55.4168 48.64 50.9795 48.64C46.5848 48.64 43.1715 47.2107 40.7395 44.352C38.3502 41.4507 37.1555 37.5893 37.1555 32.768V31.488C37.1555 26.7093 38.3502 22.8907 40.7395 20.032C43.1288 17.1307 46.5422 15.68 50.9795 15.68C55.4168 15.68 58.8302 17.1307 61.2195 20.032C63.6515 22.8907 64.8675 26.7093 64.8675 31.488ZM59.1075 30.208C59.1075 25.7707 58.4035 22.592 56.9955 20.672C55.6302 18.7093 53.6248 17.728 50.9795 17.728C48.3768 17.728 46.3715 18.7093 44.9635 20.672C43.5982 22.592 42.9155 25.7707 42.9155 30.208V34.048C42.9155 38.528 43.5982 41.7493 44.9635 43.712C46.3715 45.632 48.3768 46.592 50.9795 46.592C53.6248 46.592 55.6302 45.632 56.9955 43.712C58.4035 41.7493 59.1075 38.528 59.1075 34.048V30.208ZM104.141 46.4V48H94.2845V42.944C92.9618 44.9067 91.4898 46.3573 89.8685 47.296C88.2898 48.192 86.5192 48.64 84.5565 48.64C80.8872 48.64 78.0285 47.2747 75.9805 44.544C73.9752 41.7707 72.9725 37.8667 72.9725 32.832V31.552C72.9725 26.7307 74.1458 22.8907 76.4925 20.032C78.8818 17.1307 82.1458 15.68 86.2845 15.68C89.3138 15.68 91.8738 16.6187 93.9645 18.496V5.824C93.9645 4.33067 93.9005 3.456 93.7725 3.2C93.6445 2.944 93.2392 2.77333 92.5565 2.688L89.0365 2.368V0.639999H99.2125V42.816C99.2125 44.3093 99.2765 45.184 99.4045 45.44C99.5325 45.696 99.9378 45.8667 100.621 45.952L104.141 46.4ZM78.7325 34.752C78.7325 38.7627 79.3085 41.7067 80.4605 43.584C81.6552 45.4613 83.2978 46.4 85.3885 46.4C86.7538 46.4 88.1618 45.9733 89.6125 45.12C91.0632 44.2667 92.5138 42.5387 93.9645 39.936V21.632C92.0872 19.1147 89.6338 17.856 86.6045 17.856C83.8738 17.856 81.8685 18.9013 80.5885 20.992C79.3512 23.0827 78.7325 25.9627 78.7325 29.632V34.752ZM134.546 48.448C131.218 48.448 129.255 46.912 128.658 43.84C127.164 45.5467 125.522 46.784 123.73 47.552C121.938 48.2773 120.167 48.64 118.418 48.64C115.431 48.64 113.234 47.808 111.826 46.144C110.418 44.48 109.714 42.4747 109.714 40.128C109.714 37.6107 110.567 35.6267 112.274 34.176C114.023 32.6827 117.031 31.936 121.298 31.936H128.53V26.752C128.53 23.3387 127.932 20.992 126.738 19.712C125.586 18.3893 124.007 17.728 122.002 17.728C120.722 17.728 119.57 17.984 118.546 18.496C117.522 19.008 116.775 19.9467 116.306 21.312C115.879 22.6347 115.836 24.576 116.178 27.136L111.122 26.368C110.908 24.3627 111.164 22.5707 111.89 20.992C112.658 19.3707 113.895 18.0907 115.602 17.152C117.351 16.1707 119.527 15.68 122.13 15.68C125.244 15.68 127.634 16.2133 129.298 17.28C130.962 18.304 132.114 19.648 132.754 21.312C133.436 22.976 133.778 24.7893 133.778 26.752V41.152C133.778 43.328 134.012 44.6933 134.482 45.248C134.994 45.8027 135.548 46.08 136.146 46.08C136.53 46.08 136.935 45.9947 137.362 45.824C137.788 45.6107 138.258 45.2907 138.77 44.864L139.922 46.464C139.282 47.0187 138.514 47.488 137.618 47.872C136.764 48.256 135.74 48.448 134.546 48.448ZM120.21 45.952C121.404 45.952 122.684 45.632 124.05 44.992C125.458 44.3093 126.951 42.9653 128.53 40.96V33.984H122.002C119.612 33.984 117.863 34.4747 116.754 35.456C115.687 36.3947 115.154 37.8667 115.154 39.872C115.154 41.792 115.559 43.2853 116.37 44.352C117.223 45.4187 118.503 45.952 120.21 45.952ZM156.733 51.2C155.794 53.8027 154.77 55.9147 153.661 57.536C152.551 59.2 151.229 60.3947 149.693 61.12C148.157 61.888 146.237 62.272 143.933 62.272V57.152C147.005 57.152 149.33 56.6613 150.909 55.68C152.487 54.7413 153.746 52.9707 154.685 50.368L155.517 48H153.661L144.253 21.12C143.826 19.8827 143.506 19.1573 143.293 18.944C143.079 18.688 142.631 18.5173 141.949 18.432L138.684 18.048V16.32H153.277V18.048L150.013 18.432C149.415 18.4747 149.074 18.624 148.989 18.88C148.903 19.136 149.074 19.8827 149.501 21.12L157.181 43.264L164.925 21.056C165.309 19.8187 165.458 19.0933 165.373 18.88C165.33 18.6667 164.989 18.5173 164.349 18.432L161.021 18.048V16.32H172.733V18.048L169.469 18.432C168.829 18.5173 168.402 18.6667 168.189 18.88C167.975 19.0933 167.655 19.8187 167.229 21.056L156.733 51.2Z" fill="black"/>
</svg>
