<svg width="87" height="32" viewBox="0 0 87 32" fill="none" xmlns="http://www.w3.org/2000/svg">
<path d="M0.416 2.24H17.44V7.456H16.608L15.68 4.096C15.616 3.84 15.5413 3.65867 15.456 3.552C15.392 3.424 15.2533 3.34933 15.04 3.328C14.8267 3.28533 14.464 3.264 13.952 3.264H10.336V21.408C10.336 22.1547 10.368 22.592 10.432 22.72C10.496 22.848 10.6987 22.9333 11.04 22.976L12.8 23.168V24H5.088V23.168L6.848 22.976C7.18933 22.9333 7.392 22.848 7.456 22.72C7.52 22.592 7.552 22.1547 7.552 21.408V3.264H3.904C3.41333 3.264 3.05067 3.28533 2.816 3.328C2.60267 3.34933 2.45333 3.424 2.368 3.552C2.304 3.65867 2.24 3.84 2.176 4.096L1.248 7.456H0.416V2.24ZM32.4338 15.744V16.384C32.4338 18.7947 31.8258 20.7253 30.6098 22.176C29.4151 23.6053 27.7084 24.32 25.4898 24.32C23.2924 24.32 21.5858 23.6053 20.3698 22.176C19.1751 20.7253 18.5778 18.7947 18.5778 16.384V15.744C18.5778 13.3547 19.1751 11.4453 20.3698 10.016C21.5644 8.56533 23.2711 7.84 25.4898 7.84C27.7084 7.84 29.4151 8.56533 30.6098 10.016C31.8258 11.4453 32.4338 13.3547 32.4338 15.744ZM29.5538 15.104C29.5538 12.8853 29.2018 11.296 28.4978 10.336C27.8151 9.35467 26.8124 8.864 25.4898 8.864C24.1884 8.864 23.1858 9.35467 22.4818 10.336C21.7991 11.296 21.4578 12.8853 21.4578 15.104V17.024C21.4578 19.264 21.7991 20.8747 22.4818 21.856C23.1858 22.816 24.1884 23.296 25.4898 23.296C26.8124 23.296 27.8151 22.816 28.4978 21.856C29.2018 20.8747 29.5538 19.264 29.5538 17.024V15.104ZM52.0703 23.2V24H47.1423V21.472C46.4809 22.4533 45.7449 23.1787 44.9343 23.648C44.1449 24.096 43.2596 24.32 42.2783 24.32C40.4436 24.32 39.0143 23.6373 37.9903 22.272C36.9876 20.8853 36.4863 18.9333 36.4863 16.416V15.776C36.4863 13.3653 37.0729 11.4453 38.2463 10.016C39.4409 8.56533 41.0729 7.84 43.1423 7.84C44.6569 7.84 45.9369 8.30933 46.9823 9.248V2.912C46.9823 2.16533 46.9503 1.728 46.8863 1.6C46.8223 1.472 46.6196 1.38667 46.2783 1.344L44.5183 1.184V0.32H49.6063V21.408C49.6063 22.1547 49.6383 22.592 49.7023 22.72C49.7663 22.848 49.9689 22.9333 50.3103 22.976L52.0703 23.2ZM39.3663 17.376C39.3663 19.3813 39.6543 20.8533 40.2303 21.792C40.8276 22.7307 41.6489 23.2 42.6943 23.2C43.3769 23.2 44.0809 22.9867 44.8063 22.56C45.5316 22.1333 46.2569 21.2693 46.9823 19.968V10.816C46.0436 9.55733 44.8169 8.928 43.3023 8.928C41.9369 8.928 40.9343 9.45067 40.2943 10.496C39.6756 11.5413 39.3663 12.9813 39.3663 14.816V17.376ZM67.2728 24.224C65.6088 24.224 64.6274 23.456 64.3288 21.92C63.5821 22.7733 62.7608 23.392 61.8648 23.776C60.9688 24.1387 60.0834 24.32 59.2088 24.32C57.7154 24.32 56.6168 23.904 55.9128 23.072C55.2088 22.24 54.8568 21.2373 54.8568 20.064C54.8568 18.8053 55.2834 17.8133 56.1368 17.088C57.0114 16.3413 58.5154 15.968 60.6488 15.968H64.2648V13.376C64.2648 11.6693 63.9661 10.496 63.3688 9.856C62.7928 9.19467 62.0034 8.864 61.0008 8.864C60.3608 8.864 59.7848 8.992 59.2728 9.248C58.7608 9.504 58.3874 9.97333 58.1528 10.656C57.9394 11.3173 57.9181 12.288 58.0888 13.568L55.5608 13.184C55.4541 12.1813 55.5821 11.2853 55.9448 10.496C56.3288 9.68533 56.9474 9.04533 57.8008 8.576C58.6754 8.08533 59.7634 7.84 61.0648 7.84C62.6221 7.84 63.8168 8.10667 64.6488 8.64C65.4808 9.152 66.0568 9.824 66.3768 10.656C66.7181 11.488 66.8888 12.3947 66.8888 13.376V20.576C66.8888 21.664 67.0061 22.3467 67.2408 22.624C67.4968 22.9013 67.7741 23.04 68.0728 23.04C68.2648 23.04 68.4674 22.9973 68.6808 22.912C68.8941 22.8053 69.1288 22.6453 69.3848 22.432L69.9608 23.232C69.6408 23.5093 69.2568 23.744 68.8088 23.936C68.3821 24.128 67.8701 24.224 67.2728 24.224ZM60.1048 22.976C60.7021 22.976 61.3421 22.816 62.0248 22.496C62.7288 22.1547 63.4754 21.4827 64.2648 20.48V16.992H61.0008C59.8061 16.992 58.9314 17.2373 58.3768 17.728C57.8434 18.1973 57.5768 18.9333 57.5768 19.936C57.5768 20.896 57.7794 21.6427 58.1848 22.176C58.6114 22.7093 59.2514 22.976 60.1048 22.976ZM78.3663 25.6C77.8969 26.9013 77.3849 27.9573 76.8303 28.768C76.2756 29.6 75.6143 30.1973 74.8463 30.56C74.0783 30.944 73.1183 31.136 71.9663 31.136V28.576C73.5023 28.576 74.6649 28.3307 75.4543 27.84C76.2436 27.3707 76.8729 26.4853 77.3423 25.184L77.7583 24H76.8303L72.1263 10.56C71.9129 9.94133 71.7529 9.57867 71.6463 9.472C71.5396 9.344 71.3156 9.25867 70.9743 9.216L69.3422 9.024V8.16H76.6383V9.024L75.0063 9.216C74.7076 9.23733 74.5369 9.312 74.4943 9.44C74.4516 9.568 74.5369 9.94133 74.7503 10.56L78.5903 21.632L82.4623 10.528C82.6543 9.90933 82.7289 9.54667 82.6863 9.44C82.6649 9.33333 82.4943 9.25867 82.1743 9.216L80.5103 9.024V8.16H86.3663V9.024L84.7343 9.216C84.4143 9.25867 84.2009 9.33333 84.0943 9.44C83.9876 9.54667 83.8276 9.90933 83.6143 10.528L78.3663 25.6Z" fill="black"/>
</svg>
