<svg width="363" height="45" viewBox="0 0 363 45" fill="none" xmlns="http://www.w3.org/2000/svg">
<path d="M0.832 0.48H34.88V10.912H33.216L31.36 4.192C31.232 3.68 31.0827 3.31733 30.912 3.104C30.784 2.848 30.5067 2.69866 30.08 2.656C29.6533 2.57067 28.928 2.528 27.904 2.528H20.672V38.816C20.672 40.3093 20.736 41.184 20.864 41.44C20.992 41.696 21.3973 41.8667 22.08 41.952L25.6 42.336V44H10.176V42.336L13.696 41.952C14.3787 41.8667 14.784 41.696 14.912 41.44C15.04 41.184 15.104 40.3093 15.104 38.816V2.528H7.808C6.82667 2.528 6.10133 2.57067 5.632 2.656C5.20533 2.69866 4.90667 2.848 4.736 3.104C4.608 3.31733 4.48 3.68 4.352 4.192L2.496 10.912H0.832V0.48ZM64.8675 27.488V28.768C64.8675 33.5893 63.6515 37.4507 61.2195 40.352C58.8302 43.2107 55.4168 44.64 50.9795 44.64C46.5848 44.64 43.1715 43.2107 40.7395 40.352C38.3502 37.4507 37.1555 33.5893 37.1555 28.768V27.488C37.1555 22.7093 38.3502 18.8907 40.7395 16.032C43.1288 13.1307 46.5422 11.68 50.9795 11.68C55.4168 11.68 58.8302 13.1307 61.2195 16.032C63.6515 18.8907 64.8675 22.7093 64.8675 27.488ZM59.1075 26.208C59.1075 21.7707 58.4035 18.592 56.9955 16.672C55.6302 14.7093 53.6248 13.728 50.9795 13.728C48.3768 13.728 46.3715 14.7093 44.9635 16.672C43.5982 18.592 42.9155 21.7707 42.9155 26.208V30.048C42.9155 34.528 43.5982 37.7493 44.9635 39.712C46.3715 41.632 48.3768 42.592 50.9795 42.592C53.6248 42.592 55.6302 41.632 56.9955 39.712C58.4035 37.7493 59.1075 34.528 59.1075 30.048V26.208ZM106.189 42.336V44H91.0845V42.336L94.6045 41.952C95.2872 41.8667 95.6925 41.696 95.8205 41.44C95.9485 41.184 96.0125 40.3093 96.0125 38.816V22.88C96.0125 19.7227 95.5218 17.504 94.5405 16.224C93.6018 14.9013 92.2152 14.24 90.3805 14.24C89.0578 14.24 87.5645 14.6667 85.9005 15.52C84.2792 16.3733 82.7218 18.016 81.2285 20.448V38.816C81.2285 40.3093 81.2925 41.184 81.4205 41.44C81.5485 41.696 81.9538 41.8667 82.6365 41.952L86.1565 42.336V44H71.0525V42.336L74.5725 41.952C75.2552 41.8667 75.6605 41.696 75.7885 41.44C75.9165 41.184 75.9805 40.3093 75.9805 38.816V17.504C75.9805 16.0107 75.9165 15.136 75.7885 14.88C75.6605 14.624 75.2552 14.4533 74.5725 14.368L71.0525 14.048V12.32H80.9085V17.504C82.4018 15.4987 84.0872 14.0267 85.9645 13.088C87.8845 12.1493 89.7832 11.68 91.6605 11.68C96.2685 11.68 99.2338 13.792 100.557 18.016C102.135 15.7973 103.885 14.1973 105.805 13.216C107.767 12.192 109.73 11.68 111.693 11.68C114.722 11.68 117.069 12.6613 118.733 14.624C120.439 16.544 121.293 19.2747 121.293 22.816V38.816C121.293 40.3093 121.357 41.184 121.485 41.44C121.613 41.696 122.018 41.8667 122.701 41.952L126.221 42.336V44H111.117V42.336L114.637 41.952C115.319 41.8667 115.725 41.696 115.853 41.44C115.981 41.184 116.045 40.3093 116.045 38.816V22.88C116.045 19.7227 115.554 17.504 114.573 16.224C113.634 14.9013 112.247 14.24 110.413 14.24C109.09 14.24 107.575 14.688 105.869 15.584C104.205 16.4373 102.626 18.1227 101.132 20.64C101.175 20.9813 101.197 21.344 101.197 21.728C101.239 22.0693 101.261 22.432 101.261 22.816V38.816C101.261 40.3093 101.325 41.184 101.453 41.44C101.581 41.696 101.986 41.8667 102.669 41.952L106.189 42.336ZM165.064 42.336V44H149.96V42.336L153.48 41.952C154.162 41.8667 154.568 41.696 154.696 41.44C154.824 41.184 154.888 40.3093 154.888 38.816V22.88C154.888 19.7227 154.397 17.504 153.416 16.224C152.477 14.9013 151.09 14.24 149.256 14.24C147.933 14.24 146.44 14.6667 144.776 15.52C143.154 16.3733 141.597 18.016 140.104 20.448V38.816C140.104 40.3093 140.168 41.184 140.296 41.44C140.424 41.696 140.829 41.8667 141.512 41.952L145.032 42.336V44H129.928V42.336L133.448 41.952C134.13 41.8667 134.536 41.696 134.664 41.44C134.792 41.184 134.856 40.3093 134.856 38.816V17.504C134.856 16.0107 134.792 15.136 134.664 14.88C134.536 14.624 134.13 14.4533 133.448 14.368L129.928 14.048V12.32H139.784V17.504C141.277 15.4987 142.962 14.0267 144.84 13.088C146.76 12.1493 148.658 11.68 150.536 11.68C155.144 11.68 158.109 13.792 159.432 18.016C161.01 15.7973 162.76 14.1973 164.68 13.216C166.642 12.192 168.605 11.68 170.568 11.68C173.597 11.68 175.944 12.6613 177.608 14.624C179.314 16.544 180.168 19.2747 180.168 22.816V38.816C180.168 40.3093 180.232 41.184 180.36 41.44C180.488 41.696 180.893 41.8667 181.576 41.952L185.096 42.336V44H169.992V42.336L173.512 41.952C174.194 41.8667 174.6 41.696 174.728 41.44C174.856 41.184 174.92 40.3093 174.92 38.816V22.88C174.92 19.7227 174.429 17.504 173.448 16.224C172.509 14.9013 171.122 14.24 169.288 14.24C167.965 14.24 166.45 14.688 164.744 15.584C163.08 16.4373 161.501 18.1227 160.007 20.64C160.05 20.9813 160.072 21.344 160.072 21.728C160.114 22.0693 160.136 22.432 160.136 22.816V38.816C160.136 40.3093 160.2 41.184 160.328 41.44C160.456 41.696 160.861 41.8667 161.544 41.952L165.064 42.336ZM218.243 27.488V28.768C218.243 33.5893 217.027 37.4507 214.595 40.352C212.205 43.2107 208.792 44.64 204.355 44.64C199.96 44.64 196.547 43.2107 194.115 40.352C191.725 37.4507 190.531 33.5893 190.531 28.768V27.488C190.531 22.7093 191.725 18.8907 194.115 16.032C196.504 13.1307 199.917 11.68 204.355 11.68C208.792 11.68 212.205 13.1307 214.595 16.032C217.027 18.8907 218.243 22.7093 218.243 27.488ZM212.483 26.208C212.483 21.7707 211.779 18.592 210.371 16.672C209.005 14.7093 207 13.728 204.355 13.728C201.752 13.728 199.747 14.7093 198.339 16.672C196.973 18.592 196.291 21.7707 196.291 26.208V30.048C196.291 34.528 196.973 37.7493 198.339 39.712C199.747 41.632 201.752 42.592 204.355 42.592C207 42.592 209.005 41.632 210.371 39.712C211.779 37.7493 212.483 34.528 212.483 30.048V26.208ZM224.428 14.048V12.32H234.284V17.44C235.777 15.4347 237.27 13.984 238.764 13.088C240.3 12.1493 241.857 11.68 243.436 11.68C244.801 11.68 246.081 12.0853 247.276 12.896C248.47 13.7067 249.473 15.008 250.284 16.8L246.124 19.296C245.484 17.76 244.758 16.6933 243.948 16.096C243.137 15.4987 242.241 15.2 241.26 15.2C240.193 15.2 239.126 15.5413 238.06 16.224C237.036 16.9067 235.884 18.1867 234.604 20.064V38.816C234.604 40.3093 234.668 41.2053 234.796 41.504C234.924 41.76 235.329 41.9093 236.012 41.952L240.812 42.336V44H224.428V42.336L227.948 41.952C228.63 41.8667 229.036 41.696 229.164 41.44C229.292 41.184 229.356 40.3093 229.356 38.816V17.504C229.356 16.0107 229.292 15.136 229.164 14.88C229.036 14.624 228.63 14.4533 227.948 14.368L224.428 14.048ZM252.553 14.048V12.32H262.409V17.44C263.902 15.4347 265.395 13.984 266.889 13.088C268.425 12.1493 269.982 11.68 271.561 11.68C272.926 11.68 274.206 12.0853 275.401 12.896C276.595 13.7067 277.598 15.008 278.409 16.8L274.249 19.296C273.609 17.76 272.883 16.6933 272.073 16.096C271.262 15.4987 270.366 15.2 269.385 15.2C268.318 15.2 267.251 15.5413 266.185 16.224C265.161 16.9067 264.009 18.1867 262.729 20.064V38.816C262.729 40.3093 262.793 41.2053 262.921 41.504C263.049 41.76 263.454 41.9093 264.137 41.952L268.937 42.336V44H252.553V42.336L256.073 41.952C256.755 41.8667 257.161 41.696 257.289 41.44C257.417 41.184 257.481 40.3093 257.481 38.816V17.504C257.481 16.0107 257.417 15.136 257.289 14.88C257.161 14.624 256.755 14.4533 256.073 14.368L252.553 14.048ZM309.743 27.488V28.768C309.743 33.5893 308.527 37.4507 306.095 40.352C303.705 43.2107 300.292 44.64 295.855 44.64C291.46 44.64 288.047 43.2107 285.615 40.352C283.225 37.4507 282.031 33.5893 282.031 28.768V27.488C282.031 22.7093 283.225 18.8907 285.615 16.032C288.004 13.1307 291.417 11.68 295.855 11.68C300.292 11.68 303.705 13.1307 306.095 16.032C308.527 18.8907 309.743 22.7093 309.743 27.488ZM303.983 26.208C303.983 21.7707 303.279 18.592 301.871 16.672C300.505 14.7093 298.5 13.728 295.855 13.728C293.252 13.728 291.247 14.7093 289.839 16.672C288.473 18.592 287.791 21.7707 287.791 26.208V30.048C287.791 34.528 288.473 37.7493 289.839 39.712C291.247 41.632 293.252 42.592 295.855 42.592C298.5 42.592 300.505 41.632 301.871 39.712C303.279 37.7493 303.983 34.528 303.983 30.048V26.208ZM357.227 17.12L350.059 44H345.899L337.515 17.568L329.131 44H325.163L318.059 17.12C317.76 15.8827 317.504 15.136 317.291 14.88C317.12 14.624 316.694 14.4533 316.011 14.368L312.747 14.048V12.32H327.275V14.048L323.947 14.368C323.264 14.4533 322.88 14.624 322.795 14.88C322.752 15.136 322.902 15.8827 323.243 17.12L328.747 38.24L336.875 12.32H341.035L349.291 38.624L354.859 17.12C355.2 15.8827 355.328 15.136 355.243 14.88C355.2 14.624 354.838 14.4533 354.155 14.368L350.827 14.048V12.32H362.539V14.048L359.275 14.368C358.635 14.4533 358.208 14.624 357.995 14.88C357.824 15.136 357.568 15.8827 357.227 17.12Z" fill="black"/>
</svg>
